<?xml version="1.0" encoding="utf-8"?>
<!-- Generator: Adobe Illustrator 19.2.0, SVG Export Plug-In . SVG Version: 6.00 Build 0)  -->
<svg version="1.1" id="Layer_1" xmlns="http://www.w3.org/2000/svg" xmlns:xlink="http://www.w3.org/1999/xlink" x="0px" y="0px"
	 viewBox="0 0 528.7 121.3" style="enable-background:new 0 0 528.7 121.3;" xml:space="preserve">
<style type="text/css">
	.st0{fill:#FFFFFF;}
	.st1{fill:#5D5D5D;}
</style>
<g>
	<g>
		<g>
			<path class="st0" d="M366.5,36.6c10.8,5,4.3,14.6-0.2,22.1c-2.3,3.9-5,7.7-7.5,11.5c-2.6,3.9-7.5,8.6-9,13
				c-1.4,4,6.5,19.4,12,18.8c3.9-0.4,6.7-7.6,8.4-10.5c2.3-4.2,4.4-8.5,6.3-13c1.1-2.6,2.5-10.6,4.8-12.2c3.3-2.3,4.9,2.2,4.7,4.5
				c-0.8,9-5.7,19.4-9.8,27.3c-3.7,7-9,15.8-18,14.9c-4.4-0.4-8.6-2.8-12-5.4c-2-1.6-6-7.7-8.2-8c-4.9,7.3-9.9,14.6-14.8,21.9
				c-0.2,0.3-4.2-6.9-4.3-7.1c-1.5-5.1,2.9-9.4,5.6-13.3c2.2-3.2,7.1-7.6,7-11.7c-0.1-3.9-4.2-9.7-5.9-13.3
				c-3.7,10.5-7.5,23.3-16.1,30.9c-9.5,8.4-20.4,1-25-8.4c-4.7,5.7-9.2,12-17.5,11c-6.2-0.8-12.3-5-15-10.6c-3.2-6.7-2.3-15-1.1-22
				c0.6-3.8,1.5-7.6,2.5-11.4c1-3.8,3.4-8.4,2.2-12.3c-3.7,0.8-6.8,7.7-8.4,10.6c-2.8,4.9-5.2,10-7.2,15.2
				c-4.1,10.5-6.3,21.1-7.5,32.2c-6,0.4-12.9-1.6-16.4-6.8c-4.9-7.3-1.3-19.3,0-27.2c0.4-2.6,6-27.9,3.7-28.7
				c-3.3-1.1-11.1,16.6-12.1,18.7c-4.6,9.8-7.7,20.4-9.5,31c-0.4,2.4-0.3,5.1-0.9,7.4c-0.6,2.3,0.2,1.6-1.7,1.9
				c-1.9,0.3-5.4-1.5-7-2.5c-8.6-5.1-9.3-14.3-8.9-23.2c0.5-10.9,2-21.6,4.6-32.2c0.7-2.8,1.1-8.8,4-10.4c2.8-1.5,9,1,11.5,2.1
				c1.8,0.8,5.1,2,5.5,4.1c0.4,1.8-1.6,5.9-2.1,7.7c-1.8,6-3.5,12.1-5.2,18.1c0.2,0.1,0.4,0.1,0.6,0.2c3.6-8.1,7-16.2,11.4-23.9
				c2.9-5,7.3-16,14.5-13.6c5.3,1.7,16.4,7.9,16.5,14.3c0,4-2.5,9-3.6,12.8c-1.2,4.4-2.4,8.9-3.6,13.3c0.2,0.1,0.5,0.2,0.7,0.2
				c4.2-8.9,8-17.8,13.3-26.1c1.9-2.9,4.1-7.1,7-9.2c3.3-2.3,7.2,0,10.3,1.7c3.6,1.9,7,4.4,9.9,7.2c3.6,3.6,2.4,5.6,0.7,10
				c-3.4,8.8-6,17.9-7.5,27.2c-1,6-1.2,19,7.5,10.4c6.6-6.4,8-13.9,9.4-22.4c1.3-8.2,1.9-17.1,5.3-24.7c1.4-3.3,2.6-4.4,6.1-4.1
				c4.3,0.4,9.1,2.4,12.8,4.6c-3,11.7-5.7,23.1-7.4,35c-0.5,3.2-3.2,12.7,0.1,15.2c3.3,2.5,7.4-4.4,8.7-6.7c2.8-4.5,5-9.4,7-14.3
				c1.8-4.4,4.7-9.5,4-14.3c-0.7-4.2-4.1-10.3-0.4-13.7c3.9-3.5,11.3-4.2,16.1-3.7c0.7,9.5,3.7,18.3,6.8,27.4
				C352.6,61.8,360.8,50.1,366.5,36.6C369.4,37.9,360.8,50.1,366.5,36.6z"/>
			<path class="st0" d="M294.1,22.4c-0.7-19,23.7-27.8,26.1-5.8C322,33.4,295,49,294.1,22.4z"/>
		</g>
		<g>
			<path class="st0" d="M11.3,61.4c0.2-1.1-0.1-1.9-1.6-1.9h-6l1-5h8.5c3.4,0,4.5,1.2,4.5,3.6c0,1.1-1,6-1.8,8.1h0.2
				c3.1-6.4,8.9-12.2,16.3-12.2c1.1,0,1.9,0.1,2.7,0.3l-1.1,5.9c-0.6-0.1-1.3-0.2-2.2-0.2c-9.5,0-16.5,12.6-18.4,22.1L10.1,99h-6
				L11.3,61.4z"/>
			<path class="st0" d="M58.7,53.5c11,0,16,6.8,16,16.1c0,3.4-1.2,7.2-1.2,7.2H39.4c0,0-0.4,1.9-0.4,4.1c0,7.7,4.9,13.8,14.2,13.8
				c8,0,14.6-5.4,14.6-5.4l1.9,5c0,0-7.3,5.8-16.7,5.8c-12.2,0-20.2-7.5-20.2-18.7C32.7,66.8,43.7,53.5,58.7,53.5z M68.3,72.4
				c0,0,0.4-1.6,0.4-3.4c0-7.1-4.3-10.5-10.2-10.5c-7.3,0-14.9,4.9-18,13.9H68.3z"/>
			<path class="st0" d="M77.6,85.2h5.5l-0.6,3.4c-1.1,5.5,6.9,6.3,10.7,6.3c6,0,11.7-2.8,11.7-7.9c0-9.5-21.7-7.1-21.7-20.2
				c0-8.6,8.8-13.3,17.9-13.3c7.2,0,14.3,3.1,13.1,9l-1,4.8h-5.6l0.8-3.7c0.8-4-4.8-4.9-8.4-4.9c-5.2,0-10.8,2.6-10.8,7.5
				c0,9.5,21.8,6.7,21.8,19.8c0,8-7.3,14.1-18.7,14.1c-7.6,0-16.9-3.1-15.4-10.5L77.6,85.2z"/>
			<path class="st0" d="M122.5,82.7l4.4-23.3h-7.9l0.9-5h14L128.8,81c-0.4,2.3-0.8,4.4-0.8,6.2c0,4.3,1.8,7.2,7.8,7.2
				c9.9,0,18.1-10.1,20-19.5l2.9-15.5h-7.9l1-5h14l-6.5,33c-0.2,1-0.3,1.9-0.3,2.6c0,3.7,2.1,4.2,4.2,4.2c1.4,0,2.2-0.2,2.2-0.2
				l-1,5c0,0-1.9,0.2-3.4,0.2c-6.5,0-8.8-4.2-7.7-10.3h-0.2c-2.6,4.3-9.1,11.2-19.3,11.2c-6.5,0-12.2-3.1-12.2-11.4
				C121.8,86.9,122.1,84.8,122.5,82.7z"/>
		</g>
		<g>
			<path class="st0" d="M389.9,91.6h7.2l-1.4,7.3h-7.2L389.9,91.6z"/>
			<path class="st0" d="M409.8,61.4c0.2-1.1-0.2-1.9-1.6-1.9h-6l1-5h8.5c3.4,0,4.5,1.3,4.5,3.6c0,1-0.8,5.2-1.5,7.1h0.2
				c2.8-5.6,10.5-11.8,18.7-11.8c8,0,11.2,4.2,11.4,11.5h0.2c3.5-6.5,10.7-11.5,18.3-11.5c8,0,12.3,4.3,12.3,11.6
				c0,5.2-4.2,21.5-4.2,25c0,3.8,2,4.2,4.2,4.2c1.4,0,2.3-0.2,2.3-0.2l-1,5c0,0-1.9,0.2-3.3,0.2c-3.2,0-8.5-0.9-8.5-7.6
				c0-3.9,4.2-20.3,4.2-24.9s-1.9-7.7-7.8-7.7c-9.5,0-16.8,10.1-18.5,19l-4.1,21h-6l5.1-26.8c0.4-2,0.8-4.1,0.8-5.9
				c0-4.2-1.7-7.3-7.5-7.3c-9.5,0-17.1,9.9-18.9,19.3L408.5,99h-6L409.8,61.4z"/>
			<path class="st0" d="M510.3,53.5c11,0,16,6.8,16,16.1c0,3.4-1.2,7.2-1.2,7.2H491c0,0-0.4,1.9-0.4,4.1c0,7.7,4.9,13.8,14.2,13.8
				c8,0,14.6-5.4,14.6-5.4l1.9,5c0,0-7.3,5.8-16.7,5.8c-12.2,0-20.2-7.5-20.2-18.7C484.3,66.8,495.3,53.5,510.3,53.5z M519.9,72.4
				c0,0,0.4-1.6,0.4-3.4c0-7.1-4.3-10.5-10.2-10.5c-7.3,0-14.9,4.9-18,13.9H519.9z"/>
		</g>
	</g>
	<g>
		<g>
			<path class="st1" d="M366.5,34.6c10.8,5,4.3,14.6-0.2,22.1c-2.3,3.9-5,7.7-7.5,11.5c-2.6,3.9-7.5,8.6-9,13
				c-1.4,4,6.5,19.4,12,18.8c3.9-0.4,6.7-7.6,8.4-10.5c2.3-4.2,4.4-8.5,6.3-13c1.1-2.6,2.5-10.6,4.8-12.2c3.3-2.3,4.9,2.2,4.7,4.5
				c-0.8,9-5.7,19.4-9.8,27.3c-3.7,7-9,15.8-18,14.9c-4.4-0.4-8.6-2.8-12-5.4c-2-1.6-6-7.7-8.2-8c-4.9,7.3-9.9,14.6-14.8,21.9
				c-0.2,0.3-4.2-6.9-4.3-7.1c-1.5-5.1,2.9-9.4,5.6-13.3c2.2-3.2,7.1-7.6,7-11.7c-0.1-3.9-4.2-9.7-5.9-13.3
				c-3.7,10.5-7.5,23.3-16.1,30.9c-9.5,8.4-20.4,1-25-8.4c-4.7,5.7-9.2,12-17.5,11c-6.2-0.8-12.3-5-15-10.6c-3.2-6.7-2.3-15-1.1-22
				c0.6-3.8,1.5-7.6,2.5-11.4c1-3.8,3.4-8.4,2.2-12.3c-3.7,0.8-6.8,7.7-8.4,10.6c-2.8,4.9-5.2,10-7.2,15.2
				c-4.1,10.5-6.3,21.1-7.5,32.2c-6,0.4-12.9-1.6-16.4-6.8c-4.9-7.3-1.3-19.3,0-27.2c0.4-2.6,6-27.9,3.7-28.7
				c-3.3-1.1-11.1,16.6-12.1,18.7c-4.6,9.8-7.7,20.4-9.5,31c-0.4,2.4-0.3,5.1-0.9,7.4c-0.6,2.3,0.2,1.6-1.7,1.9
				c-1.9,0.3-5.4-1.5-7-2.5c-8.6-5.1-9.3-14.3-8.9-23.2c0.5-10.9,2-21.6,4.6-32.2c0.7-2.8,1.1-8.8,4-10.4c2.8-1.5,9,1,11.5,2.1
				c1.8,0.8,5.1,2,5.5,4.1c0.4,1.8-1.6,5.9-2.1,7.7c-1.8,6-3.5,12.1-5.2,18.1c0.2,0.1,0.4,0.1,0.6,0.2c3.6-8.1,7-16.2,11.4-23.9
				c2.9-5,7.3-16,14.5-13.6c5.3,1.7,16.4,7.9,16.5,14.3c0,4-2.5,9-3.6,12.8c-1.2,4.4-2.4,8.9-3.6,13.3c0.2,0.1,0.5,0.2,0.7,0.2
				c4.2-8.9,8-17.8,13.3-26.1c1.9-2.9,4.1-7.1,7-9.2c3.3-2.3,7.2,0,10.3,1.7c3.6,1.9,7,4.4,9.9,7.2c3.6,3.6,2.4,5.6,0.7,10
				c-3.4,8.8-6,17.9-7.5,27.2c-1,6-1.2,19,7.5,10.4c6.6-6.4,8-13.9,9.4-22.4c1.3-8.2,1.9-17.1,5.3-24.7c1.4-3.3,2.6-4.4,6.1-4.1
				c4.3,0.4,9.1,2.4,12.8,4.6c-3,11.7-5.7,23.1-7.4,35c-0.5,3.2-3.2,12.7,0.1,15.2c3.3,2.5,7.4-4.4,8.7-6.7c2.8-4.5,5-9.4,7-14.3
				c1.8-4.4,4.7-9.5,4-14.3c-0.7-4.2-4.1-10.3-0.4-13.7c3.9-3.5,11.3-4.2,16.1-3.7c0.7,9.5,3.7,18.3,6.8,27.4
				C352.6,59.8,360.8,48,366.5,34.6C369.4,35.9,360.8,48,366.5,34.6z"/>
			<path class="st1" d="M294.1,20.4c-0.7-19,23.7-27.8,26.1-5.8C322,31.4,295,47,294.1,20.4z"/>
		</g>
		<g>
			<path class="st1" d="M11.3,59.4c0.2-1.1-0.1-1.9-1.6-1.9h-6l1-5h8.5c3.4,0,4.5,1.2,4.5,3.6c0,1.1-1,6-1.8,8.1h0.2
				c3.1-6.4,8.9-12.2,16.3-12.2c1.1,0,1.9,0.1,2.7,0.3l-1.1,5.9c-0.6-0.1-1.3-0.2-2.2-0.2c-9.5,0-16.5,12.6-18.4,22.1L10.1,97h-6
				L11.3,59.4z"/>
			<path class="st1" d="M58.7,51.5c11,0,16,6.8,16,16.1c0,3.4-1.2,7.2-1.2,7.2H39.4c0,0-0.4,1.9-0.4,4.1c0,7.7,4.9,13.8,14.2,13.8
				c8,0,14.6-5.4,14.6-5.4l1.9,5c0,0-7.3,5.8-16.7,5.8c-12.2,0-20.2-7.5-20.2-18.7C32.7,64.8,43.7,51.5,58.7,51.5z M68.3,70.4
				c0,0,0.4-1.6,0.4-3.4c0-7.1-4.3-10.5-10.2-10.5c-7.3,0-14.9,4.9-18,13.9H68.3z"/>
			<path class="st1" d="M77.6,83.2h5.5l-0.6,3.4c-1.1,5.5,6.9,6.3,10.7,6.3c6,0,11.7-2.8,11.7-7.9c0-9.5-21.7-7.1-21.7-20.2
				c0-8.6,8.8-13.3,17.9-13.3c7.2,0,14.3,3.1,13.1,9l-1,4.8h-5.6l0.8-3.7c0.8-4-4.8-4.9-8.4-4.9c-5.2,0-10.8,2.6-10.8,7.5
				c0,9.5,21.8,6.7,21.8,19.8c0,8-7.3,14.1-18.7,14.1c-7.6,0-16.9-3.1-15.4-10.5L77.6,83.2z"/>
			<path class="st1" d="M122.5,80.7l4.4-23.3h-7.9l0.9-5h14L128.8,79c-0.4,2.3-0.8,4.4-0.8,6.2c0,4.3,1.8,7.2,7.8,7.2
				c9.9,0,18.1-10.1,20-19.5l2.9-15.5h-7.9l1-5h14l-6.5,33c-0.2,1-0.3,1.9-0.3,2.6c0,3.7,2.1,4.2,4.2,4.2c1.4,0,2.2-0.2,2.2-0.2
				l-1,5c0,0-1.9,0.2-3.4,0.2c-6.5,0-8.8-4.2-7.7-10.3h-0.2C150.8,91.1,144.2,98,134,98c-6.5,0-12.2-3.1-12.2-11.4
				C121.8,84.9,122.1,82.8,122.5,80.7z"/>
		</g>
		<g>
			<path class="st1" d="M389.9,89.6h7.2l-1.4,7.3h-7.2L389.9,89.6z"/>
			<path class="st1" d="M409.8,59.4c0.2-1.1-0.2-1.9-1.6-1.9h-6l1-5h8.5c3.4,0,4.5,1.3,4.5,3.6c0,1-0.8,5.2-1.5,7.1h0.2
				c2.8-5.6,10.5-11.8,18.7-11.8c8,0,11.2,4.2,11.4,11.5h0.2c3.5-6.5,10.7-11.5,18.3-11.5c8,0,12.3,4.3,12.3,11.6
				c0,5.2-4.2,21.5-4.2,25c0,3.8,2,4.2,4.2,4.2c1.4,0,2.3-0.2,2.3-0.2l-1,5c0,0-1.9,0.2-3.3,0.2c-3.2,0-8.5-0.9-8.5-7.6
				c0-3.9,4.2-20.3,4.2-24.9s-1.9-7.7-7.8-7.7c-9.5,0-16.8,10.1-18.5,19l-4.1,21h-6l5.1-26.8c0.4-2,0.8-4.1,0.8-5.9
				c0-4.2-1.7-7.3-7.5-7.3c-9.5,0-17.1,9.9-18.9,19.3L408.5,97h-6L409.8,59.4z"/>
			<path class="st1" d="M510.3,51.5c11,0,16,6.8,16,16.1c0,3.4-1.2,7.2-1.2,7.2H491c0,0-0.4,1.9-0.4,4.1c0,7.7,4.9,13.8,14.2,13.8
				c8,0,14.6-5.4,14.6-5.4l1.9,5c0,0-7.3,5.8-16.7,5.8c-12.2,0-20.2-7.5-20.2-18.7C484.3,64.8,495.3,51.5,510.3,51.5z M519.9,70.4
				c0,0,0.4-1.6,0.4-3.4c0-7.1-4.3-10.5-10.2-10.5c-7.3,0-14.9,4.9-18,13.9H519.9z"/>
		</g>
	</g>
</g>
</svg>
