<?xml version="1.0" encoding="utf-8"?>
<!-- Generator: Adobe Illustrator 19.2.0, SVG Export Plug-In . SVG Version: 6.00 Build 0)  -->
<svg version="1.1" id="Layer_1" xmlns="http://www.w3.org/2000/svg" xmlns:xlink="http://www.w3.org/1999/xlink" x="0px" y="0px"
	 viewBox="0 0 1161 599.5" style="enable-background:new 0 0 1161 599.5;" xml:space="preserve">
<style type="text/css">
	.st0{opacity:0.25;}
	.st1{fill:#FFFFFF;}
	.st2{fill:none;stroke:#FFFFFF;stroke-width:10;stroke-miterlimit:10;}
</style>
<g>
	<g class="st0">
		<g>
			<path class="st1" d="M316,106v179.5H173V106H316 M320,102H169v187.5h151V102L320,102z"/>
		</g>
		<g>
			<line class="st2" x1="193.2" y1="135.3" x2="247.2" y2="135.3"/>
			<line class="st2" x1="193.2" y1="155.3" x2="296.2" y2="155.3"/>
			<line class="st2" x1="193.2" y1="175.3" x2="296.2" y2="175.3"/>
			<line class="st2" x1="193.2" y1="196.3" x2="296.2" y2="196.3"/>
			<line class="st2" x1="193.2" y1="216.3" x2="296.2" y2="216.3"/>
			<line class="st2" x1="193.2" y1="236.3" x2="296.2" y2="236.3"/>
			<line class="st2" x1="193.2" y1="256.3" x2="296.2" y2="256.3"/>
		</g>
	</g>
	<g>
		<g class="st0">
			<g>
				<path class="st1" d="M1157,212v179.5h-143V212H1157 M1161,208h-151v187.5h151V208L1161,208z"/>
			</g>
			<g>
				<line class="st2" x1="1034.2" y1="241.3" x2="1088.2" y2="241.3"/>
				<line class="st2" x1="1034.2" y1="261.3" x2="1137.2" y2="261.3"/>
				<line class="st2" x1="1034.2" y1="281.3" x2="1137.2" y2="281.3"/>
				<line class="st2" x1="1034.2" y1="302.3" x2="1137.2" y2="302.3"/>
				<line class="st2" x1="1034.2" y1="322.3" x2="1137.2" y2="322.3"/>
				<line class="st2" x1="1034.2" y1="342.3" x2="1137.2" y2="342.3"/>
				<line class="st2" x1="1034.2" y1="362.3" x2="1137.2" y2="362.3"/>
			</g>
		</g>
		<g class="st0">
			<g>
				<path class="st1" d="M1157,413v179.5h-143V413H1157 M1161,409h-151v187.5h151V409L1161,409z"/>
			</g>
			<g>
				<line class="st2" x1="1034.2" y1="442.3" x2="1088.2" y2="442.3"/>
				<line class="st2" x1="1034.2" y1="462.3" x2="1137.2" y2="462.3"/>
				<line class="st2" x1="1034.2" y1="482.3" x2="1137.2" y2="482.3"/>
				<line class="st2" x1="1034.2" y1="503.3" x2="1137.2" y2="503.3"/>
				<line class="st2" x1="1034.2" y1="523.3" x2="1137.2" y2="523.3"/>
				<line class="st2" x1="1034.2" y1="543.3" x2="1137.2" y2="543.3"/>
				<line class="st2" x1="1034.2" y1="563.3" x2="1137.2" y2="563.3"/>
			</g>
		</g>
	</g>
	<g>
		<g class="st0">
			<g>
				<path class="st1" d="M822,416v179.5H679V416H822 M826,412H675v187.5h151V412L826,412z"/>
			</g>
			<g>
				<line class="st2" x1="699.2" y1="445.3" x2="753.2" y2="445.3"/>
				<line class="st2" x1="699.2" y1="465.3" x2="802.2" y2="465.3"/>
				<line class="st2" x1="699.2" y1="485.3" x2="802.2" y2="485.3"/>
				<line class="st2" x1="699.2" y1="506.3" x2="802.2" y2="506.3"/>
				<line class="st2" x1="699.2" y1="526.3" x2="802.2" y2="526.3"/>
				<line class="st2" x1="699.2" y1="546.3" x2="802.2" y2="546.3"/>
				<line class="st2" x1="699.2" y1="566.3" x2="802.2" y2="566.3"/>
			</g>
		</g>
	</g>
	<g>
		<g class="st0">
			<g>
				<path class="st1" d="M1157,6v179.5h-143V6H1157 M1161,2h-151v187.5h151V2L1161,2z"/>
			</g>
			<g>
				<line class="st2" x1="1034.2" y1="35.3" x2="1088.2" y2="35.3"/>
				<line class="st2" x1="1034.2" y1="55.3" x2="1137.2" y2="55.3"/>
				<line class="st2" x1="1034.2" y1="75.3" x2="1137.2" y2="75.3"/>
				<line class="st2" x1="1034.2" y1="96.3" x2="1137.2" y2="96.3"/>
				<line class="st2" x1="1034.2" y1="116.3" x2="1137.2" y2="116.3"/>
				<line class="st2" x1="1034.2" y1="136.3" x2="1137.2" y2="136.3"/>
				<line class="st2" x1="1034.2" y1="156.3" x2="1137.2" y2="156.3"/>
			</g>
		</g>
	</g>
	<g>
		<g class="st0">
			<g>
				<path class="st1" d="M990,106v179.5H847V106H990 M994,102H843v187.5h151V102L994,102z"/>
			</g>
			<g>
				<line class="st2" x1="867.2" y1="135.3" x2="921.2" y2="135.3"/>
				<line class="st2" x1="867.2" y1="155.3" x2="970.2" y2="155.3"/>
				<line class="st2" x1="867.2" y1="175.3" x2="970.2" y2="175.3"/>
				<line class="st2" x1="867.2" y1="196.3" x2="970.2" y2="196.3"/>
				<line class="st2" x1="867.2" y1="216.3" x2="970.2" y2="216.3"/>
				<line class="st2" x1="867.2" y1="236.3" x2="970.2" y2="236.3"/>
				<line class="st2" x1="867.2" y1="256.3" x2="970.2" y2="256.3"/>
			</g>
		</g>
		<g class="st0">
			<g>
				<path class="st1" d="M990,307v179.5H847V307H990 M994,303H843v187.5h151V303L994,303z"/>
			</g>
			<g>
				<line class="st2" x1="867.2" y1="336.3" x2="921.2" y2="336.3"/>
				<line class="st2" x1="867.2" y1="356.3" x2="970.2" y2="356.3"/>
				<line class="st2" x1="867.2" y1="376.3" x2="970.2" y2="376.3"/>
				<line class="st2" x1="867.2" y1="397.3" x2="970.2" y2="397.3"/>
				<line class="st2" x1="867.2" y1="417.3" x2="970.2" y2="417.3"/>
				<line class="st2" x1="867.2" y1="437.3" x2="970.2" y2="437.3"/>
				<line class="st2" x1="867.2" y1="457.3" x2="970.2" y2="457.3"/>
			</g>
		</g>
	</g>
	<g>
		<g class="st0">
			<g>
				<path class="st1" d="M652,106v179.5H509V106H652 M656,102H505v187.5h151V102L656,102z"/>
			</g>
			<g>
				<line class="st2" x1="529.2" y1="135.3" x2="583.2" y2="135.3"/>
				<line class="st2" x1="529.2" y1="155.3" x2="632.2" y2="155.3"/>
				<line class="st2" x1="529.2" y1="175.3" x2="632.2" y2="175.3"/>
				<line class="st2" x1="529.2" y1="196.3" x2="632.2" y2="196.3"/>
				<line class="st2" x1="529.2" y1="216.3" x2="632.2" y2="216.3"/>
				<line class="st2" x1="529.2" y1="236.3" x2="632.2" y2="236.3"/>
				<line class="st2" x1="529.2" y1="256.3" x2="632.2" y2="256.3"/>
			</g>
		</g>
		<g class="st0">
			<g>
				<path class="st1" d="M652,307v179.5H509V307H652 M656,303H505v187.5h151V303L656,303z"/>
			</g>
			<g>
				<line class="st2" x1="529.2" y1="336.3" x2="583.2" y2="336.3"/>
				<line class="st2" x1="529.2" y1="356.3" x2="632.2" y2="356.3"/>
				<line class="st2" x1="529.2" y1="376.3" x2="632.2" y2="376.3"/>
				<line class="st2" x1="529.2" y1="397.3" x2="632.2" y2="397.3"/>
				<line class="st2" x1="529.2" y1="417.3" x2="632.2" y2="417.3"/>
				<line class="st2" x1="529.2" y1="437.3" x2="632.2" y2="437.3"/>
				<line class="st2" x1="529.2" y1="457.3" x2="632.2" y2="457.3"/>
			</g>
		</g>
	</g>
	<g>
		<g class="st0">
			<g>
				<path class="st1" d="M821,5v179.5H678V5H821 M825,1H674v187.5h151V1L825,1z"/>
			</g>
			<g>
				<line class="st2" x1="698.2" y1="34.3" x2="752.2" y2="34.3"/>
				<line class="st2" x1="698.2" y1="54.3" x2="801.2" y2="54.3"/>
				<line class="st2" x1="698.2" y1="74.3" x2="801.2" y2="74.3"/>
				<line class="st2" x1="698.2" y1="95.3" x2="801.2" y2="95.3"/>
				<line class="st2" x1="698.2" y1="115.3" x2="801.2" y2="115.3"/>
				<line class="st2" x1="698.2" y1="135.3" x2="801.2" y2="135.3"/>
				<line class="st2" x1="698.2" y1="155.3" x2="801.2" y2="155.3"/>
			</g>
		</g>
		<g class="st0">
			<g>
				<path class="st1" d="M821,210v179.5H678V210H821 M825,206H674v187.5h151V206L825,206z"/>
			</g>
			<g>
				<line class="st2" x1="698.2" y1="239.3" x2="752.2" y2="239.3"/>
				<line class="st2" x1="698.2" y1="259.3" x2="801.2" y2="259.3"/>
				<line class="st2" x1="698.2" y1="279.3" x2="801.2" y2="279.3"/>
				<line class="st2" x1="698.2" y1="300.3" x2="801.2" y2="300.3"/>
				<line class="st2" x1="698.2" y1="320.3" x2="801.2" y2="320.3"/>
				<line class="st2" x1="698.2" y1="340.3" x2="801.2" y2="340.3"/>
				<line class="st2" x1="698.2" y1="360.3" x2="801.2" y2="360.3"/>
			</g>
		</g>
	</g>
	<g class="st0">
		<g>
			<path class="st1" d="M482,210v179.5H339V210H482 M486,206H335v187.5h151V206L486,206z"/>
		</g>
		<g>
			<line class="st2" x1="359.2" y1="239.3" x2="413.2" y2="239.3"/>
			<line class="st2" x1="359.2" y1="259.3" x2="462.2" y2="259.3"/>
			<line class="st2" x1="359.2" y1="279.3" x2="462.2" y2="279.3"/>
			<line class="st2" x1="359.2" y1="300.3" x2="462.2" y2="300.3"/>
			<line class="st2" x1="359.2" y1="320.3" x2="462.2" y2="320.3"/>
			<line class="st2" x1="359.2" y1="340.3" x2="462.2" y2="340.3"/>
			<line class="st2" x1="359.2" y1="360.3" x2="462.2" y2="360.3"/>
		</g>
	</g>
	<g class="st0">
		<g>
			<path class="st1" d="M482,4v179.5H339V4H482 M486,0H335v187.5h151V0L486,0z"/>
		</g>
		<g>
			<line class="st2" x1="359.2" y1="33.3" x2="413.2" y2="33.3"/>
			<line class="st2" x1="359.2" y1="53.3" x2="462.2" y2="53.3"/>
			<line class="st2" x1="359.2" y1="73.3" x2="462.2" y2="73.3"/>
			<line class="st2" x1="359.2" y1="94.3" x2="462.2" y2="94.3"/>
			<line class="st2" x1="359.2" y1="114.3" x2="462.2" y2="114.3"/>
			<line class="st2" x1="359.2" y1="134.3" x2="462.2" y2="134.3"/>
			<line class="st2" x1="359.2" y1="154.3" x2="462.2" y2="154.3"/>
		</g>
	</g>
	<g class="st0">
		<g>
			<path class="st1" d="M147,210v179.5H4V210H147 M151,206H0v187.5h151V206L151,206z"/>
		</g>
		<g>
			<line class="st2" x1="24.2" y1="239.3" x2="78.2" y2="239.3"/>
			<line class="st2" x1="24.2" y1="259.3" x2="127.2" y2="259.3"/>
			<line class="st2" x1="24.2" y1="279.3" x2="127.2" y2="279.3"/>
			<line class="st2" x1="24.2" y1="300.3" x2="127.2" y2="300.3"/>
			<line class="st2" x1="24.2" y1="320.3" x2="127.2" y2="320.3"/>
			<line class="st2" x1="24.2" y1="340.3" x2="127.2" y2="340.3"/>
			<line class="st2" x1="24.2" y1="360.3" x2="127.2" y2="360.3"/>
		</g>
	</g>
	<g class="st0">
		<g>
			<path class="st1" d="M147,4v179.5H4V4H147 M151,0H0v187.5h151V0L151,0z"/>
		</g>
		<g>
			<line class="st2" x1="24.2" y1="33.3" x2="78.2" y2="33.3"/>
			<line class="st2" x1="24.2" y1="53.3" x2="127.2" y2="53.3"/>
			<line class="st2" x1="24.2" y1="73.3" x2="127.2" y2="73.3"/>
			<line class="st2" x1="24.2" y1="94.3" x2="127.2" y2="94.3"/>
			<line class="st2" x1="24.2" y1="114.3" x2="127.2" y2="114.3"/>
			<line class="st2" x1="24.2" y1="134.3" x2="127.2" y2="134.3"/>
			<line class="st2" x1="24.2" y1="154.3" x2="127.2" y2="154.3"/>
		</g>
	</g>
</g>
</svg>
