<?xml version="1.0" encoding="utf-8"?>
<!-- Generator: Adobe Illustrator 19.2.0, SVG Export Plug-In . SVG Version: 6.00 Build 0)  -->
<svg version="1.1" id="Layer_1" xmlns="http://www.w3.org/2000/svg" xmlns:xlink="http://www.w3.org/1999/xlink" x="0px" y="0px"
	 viewBox="0 0 1024 389.3" style="enable-background:new 0 0 1024 389.3;" xml:space="preserve">
<style type="text/css">
	.st0{opacity:0.25;fill:#FFFFFF;}
</style>
<path class="st0" d="M774,273.3h103v10H774V273.3z M266,146.3h103v-10H266V146.3z M774,172.3v10h54v-10H774z M774,263.3h103v-10H774
	V263.3z M774,222.3h103v-10H774V222.3z M774,243.3h103v-10H774V243.3z M436,202.3h103v-10H436V202.3z M733,301.4v-49.1H582v1.1
	l9.8,2.9H729v43.8L733,301.4z M339,176.3l30,9.5v-9.5H339z M266,105.3h103v-10H266V105.3z M266,75.3v10h54v-10H266z M266,125.3h103
	v-10H266V125.3z M539,222.3v-10h-86.7l31.5,10H539z M518.4,233.3l20.6,6.6v-6.6H518.4z M563,247.4v-104H412v56.1l4,1.3v-53.3h143
	v98.8L563,247.4z M436,172.3v10h54v-10H436z M774,303.3h103v-10H774V303.3z M941,148.3h83v-10h-83V148.3z M941,168.3h83v-10h-83
	V168.3z M917,236.3h107v-4H921v-180h103v-4H917V236.3z M941,208.3h83v-10h-83V208.3z M941,188.3h83v-10h-83V188.3z M941,127.3h83
	v-10h-83V127.3z M774,202.3h103v-10H774V202.3z M941,77.3v10h54v-10H941z M941,107.3h83v-10h-83V107.3z M917,359.9l4,1.3V253.3h103
	v-4H917V359.9z M901,143.3H750v163.5l4,1.3V147.3h143v180h-83.3l12.6,4H901V143.3z M941,367.6l5.4,1.7h77.6v-10h-83V367.6z
	 M941,328.3h83v-10h-83V328.3z M941,278.3v10h54v-10H941z M941,308.3h83v-10h-83V308.3z M977.8,379.3l31.5,10h14.7v-10H977.8z
	 M941,349.3h83v-10h-83V349.3z M877,32.3H774v10h103V32.3z M877,11.3H774v10h103V11.3z M877,52.3H774v10h103V52.3z M412,7.3v123h151
	V7.3h-4v119H416V7.3H412z M659,75.3h-54v10h54V75.3z M581,7.3v22h151v-22h-4v18H585v-18H581z M774,102.3h103v-10H774V102.3z
	 M877,72.3H774v10h103V72.3z M750,7.3v123h151V7.3h-4v119H754V7.3H750z M581,46.3h151v188H581V46.3z M585,230.3h143v-180H585V230.3z
	 M605,105.3h103v-10H605V105.3z M605,125.3h103v-10H605V125.3z M605,206.3h103v-10H605V206.3z M921,26.3v-19h-4v23h107v-4H921z
	 M605,186.3h103v-10H605V186.3z M605,146.3h103v-10H605V146.3z M605,166.3h103v-10H605V166.3z M227,7.3h-4v119h-41.9l12.6,4H227V7.3
	z M539,11.3H436v10h103V11.3z M203,72.3H100v10h103V72.3z M203,92.3H100v8.1l6.1,1.9H203V92.3z M203,52.3H100v10h103V52.3z
	 M203,32.3H100v10h103V32.3z M393,193.4v-147H242v99l4,1.3V50.3h143v141.8L393,193.4z M58,7.3h-4v17H0v4h58V7.3z M58,86.9V46.3H0v4
	h54v35.3L58,86.9z M80,7.3h-4v85.3l4,1.3V7.3z M539,52.3H436v10h103V52.3z M436,102.3h103v-10H436V102.3z M539,32.3H436v10h103V32.3
	z M203,11.3H100v10h103V11.3z M539,72.3H436v10h103V72.3z M369,166.3v-10h-92.9l31.5,10H369z M242,7.3v21h151v-21h-4v17H246v-17H242
	z"/>
</svg>
